<?xml version="1.0" encoding="UTF-8"?>
<svg xmlns="http://www.w3.org/2000/svg" xmlns:xlink="http://www.w3.org/1999/xlink" width="496.063pt" height="722.833pt" viewBox="0 0 496.063 722.833" version="1.1">
<g id="surface1">
<path style=" stroke:none;fill-rule:nonzero;fill:rgb(8.198547%,57.998657%,79.998779%);fill-opacity:1;" d="M 248.03125 327.96875 L 265.097656 337.820312 L 265.097656 357.523438 L 248.03125 367.375 L 230.96875 357.523438 L 230.96875 337.820312 Z M 248.03125 327.96875 "/>
<path style=" stroke:none;fill-rule:nonzero;fill:rgb(13.699341%,71.798706%,89.7995%);fill-opacity:1;" d="M 213.90625 327.96875 L 230.96875 337.820312 L 230.96875 357.527344 L 213.90625 367.378906 L 196.839844 357.527344 L 196.839844 337.820312 Z M 213.90625 327.96875 "/>
<path style=" stroke:none;fill-rule:nonzero;fill:rgb(13.699341%,71.798706%,89.7995%);fill-opacity:1;" d="M 265.089844 298.410156 L 282.15625 308.261719 L 282.15625 327.964844 L 265.089844 337.820312 L 248.027344 327.964844 L 248.027344 308.261719 Z M 265.089844 298.410156 "/>
<path style=" stroke:none;fill-rule:nonzero;fill:rgb(23.899841%,80.799866%,95.698547%);fill-opacity:1;" d="M 230.964844 298.414062 L 248.027344 308.265625 L 248.027344 327.96875 L 230.964844 337.820312 L 213.902344 327.96875 L 213.902344 308.265625 Z M 230.964844 298.414062 "/>
<path style=" stroke:none;fill-rule:nonzero;fill:rgb(12.199402%,40.79895%,59.999084%);fill-opacity:1;" d="M 265.097656 357.519531 L 282.160156 367.371094 L 282.160156 387.074219 L 265.097656 396.925781 L 248.035156 387.074219 L 248.035156 367.371094 Z M 265.097656 357.519531 "/>
<path style=" stroke:none;fill-rule:nonzero;fill:rgb(14.099121%,49.798584%,69.799805%);fill-opacity:1;" d="M 230.972656 357.519531 L 248.035156 367.375 L 248.035156 387.078125 L 230.972656 396.929688 L 213.90625 387.078125 L 213.90625 367.375 Z M 230.972656 357.519531 "/>
<path style=" stroke:none;fill-rule:nonzero;fill:rgb(14.099121%,49.798584%,69.799805%);fill-opacity:1;" d="M 282.15625 327.960938 L 299.222656 337.8125 L 299.222656 357.519531 L 282.15625 367.371094 L 265.09375 357.519531 L 265.09375 337.8125 Z M 282.15625 327.960938 "/>
<path style=" stroke:none;fill-rule:nonzero;fill:rgb(100%,100%,100%);fill-opacity:1;" d="M 246.398438 339.980469 L 220.589844 339.980469 L 220.589844 337.347656 L 246.398438 337.347656 Z M 246.398438 339.980469 "/>
<path style=" stroke:none;fill-rule:nonzero;fill:rgb(100%,100%,100%);fill-opacity:1;" d="M 226.949219 360.609375 L 223.050781 360.609375 L 223.050781 348.402344 L 226.949219 348.402344 Z M 226.949219 360.609375 "/>
<path style=" stroke:none;fill-rule:nonzero;fill:rgb(100%,100%,100%);fill-opacity:1;" d="M 246.398438 346.117188 L 228.105469 346.117188 L 228.105469 343.554688 L 246.398438 343.554688 Z M 246.398438 346.117188 "/>
<path style=" stroke:none;fill-rule:nonzero;fill:rgb(100%,100%,100%);fill-opacity:1;" d="M 229.109375 342.605469 L 225.207031 342.605469 L 225.207031 334.722656 L 229.109375 334.722656 Z M 229.109375 342.605469 "/>
<path style=" stroke:none;fill-rule:nonzero;fill:rgb(100%,100%,100%);fill-opacity:1;" d="M 224.140625 352.554688 L 219.71875 352.554688 L 226.308594 342.601562 L 230.730469 342.601562 Z M 224.140625 352.554688 "/>
<path style=" stroke:none;fill-rule:nonzero;fill:rgb(100%,100%,100%);fill-opacity:1;" d="M 244.367188 360.609375 L 240.46875 360.609375 L 240.46875 346.117188 L 244.367188 346.117188 Z M 244.367188 360.609375 "/>
<path style=" stroke:none;fill-rule:nonzero;fill:rgb(100%,100%,100%);fill-opacity:1;" d="M 232.9375 353.363281 L 229.246094 353.363281 L 229.246094 350.550781 L 232.9375 350.550781 Z M 232.9375 353.363281 "/>
<path style=" stroke:none;fill-rule:nonzero;fill:rgb(100%,100%,100%);fill-opacity:1;" d="M 238.40625 353.363281 L 234.507812 353.363281 L 234.507812 350.550781 L 238.40625 350.550781 Z M 238.40625 353.363281 "/>
<path style=" stroke:none;fill-rule:nonzero;fill:rgb(100%,100%,100%);fill-opacity:1;" d="M 238.40625 350.550781 L 229.246094 350.550781 L 229.246094 347.988281 L 238.40625 347.988281 Z M 238.40625 350.550781 "/>
<path style=" stroke:none;fill-rule:nonzero;fill:rgb(100%,100%,100%);fill-opacity:1;" d="M 238.40625 355.925781 L 229.246094 355.925781 L 229.246094 353.363281 L 238.40625 353.363281 Z M 238.40625 355.925781 "/>
<path style=" stroke:none;fill-rule:nonzero;fill:rgb(100%,100%,100%);fill-opacity:1;" d="M 256.648438 349.503906 L 252.960938 349.503906 L 252.960938 337.34375 L 256.648438 337.34375 Z M 256.648438 349.503906 "/>
<path style=" stroke:none;fill-rule:nonzero;fill:rgb(100%,100%,100%);fill-opacity:1;" d="M 269.921875 337.34375 L 252.960938 337.34375 L 252.960938 334.78125 L 269.921875 334.78125 Z M 269.921875 337.34375 "/>
<path style=" stroke:none;fill-rule:nonzero;fill:rgb(100%,100%,100%);fill-opacity:1;" d="M 273.820312 346.941406 L 269.921875 346.941406 L 269.921875 334.78125 L 273.820312 334.78125 Z M 273.820312 346.941406 "/>
<path style=" stroke:none;fill-rule:nonzero;fill:rgb(100%,100%,100%);fill-opacity:1;" d="M 273.820312 349.503906 L 256.648438 349.503906 L 256.648438 346.941406 L 273.820312 346.941406 Z M 273.820312 349.503906 "/>
<path style=" stroke:none;fill-rule:nonzero;fill:rgb(100%,100%,100%);fill-opacity:1;" d="M 269.921875 343.425781 L 256.648438 343.425781 L 256.648438 340.863281 L 269.921875 340.863281 Z M 269.921875 343.425781 "/>
<path style=" stroke:none;fill-rule:nonzero;fill:rgb(100%,100%,100%);fill-opacity:1;" d="M 265.339844 346.941406 L 261.441406 346.941406 L 261.441406 337.34375 L 265.339844 337.34375 Z M 265.339844 346.941406 "/>
<path style=" stroke:none;fill-rule:nonzero;fill:rgb(100%,100%,100%);fill-opacity:1;" d="M 254.984375 360.582031 L 250.566406 360.582031 L 253.011719 351.300781 L 257.433594 351.300781 Z M 254.984375 360.582031 "/>
<path style=" stroke:none;fill-rule:nonzero;fill:rgb(100%,100%,100%);fill-opacity:1;" d="M 262.570312 360.585938 L 258.671875 360.585938 L 258.671875 351.300781 L 262.570312 351.300781 Z M 262.570312 360.585938 "/>
<path style=" stroke:none;fill-rule:nonzero;fill:rgb(100%,100%,100%);fill-opacity:1;" d="M 276.367188 360.609375 L 262.570312 360.609375 L 262.570312 358.046875 L 276.367188 358.046875 Z M 276.367188 360.609375 "/>
<path style=" stroke:none;fill-rule:nonzero;fill:rgb(100%,100%,100%);fill-opacity:1;" d="M 269.242188 356.265625 L 265.339844 356.265625 L 265.339844 351.300781 L 269.242188 351.300781 Z M 269.242188 356.265625 "/>
<path style=" stroke:none;fill-rule:nonzero;fill:rgb(100%,100%,100%);fill-opacity:1;" d="M 275.773438 356.265625 L 271.871094 356.265625 L 271.871094 351.300781 L 275.773438 351.300781 Z M 275.773438 356.265625 "/>
<path style=" stroke:none;fill-rule:nonzero;fill:rgb(100%,100%,100%);fill-opacity:1;" d="M 241.503906 342.5625 L 237.601562 342.5625 L 237.601562 334.761719 L 241.503906 334.761719 Z M 241.503906 342.5625 "/>
<path style="fill:none;stroke-width:1.5;stroke-linecap:butt;stroke-linejoin:miter;stroke:rgb(9.799194%,30.999756%,49.798584%);stroke-opacity:1;stroke-miterlimit:10;" d="M 0.00121875 0.00181875 L 234.665281 0.00181875 " transform="matrix(1,0,0,-1,130.698,573.1151)"/>
<path style="fill:none;stroke-width:1.5;stroke-linecap:butt;stroke-linejoin:miter;stroke:rgb(17.999268%,67.799377%,89.7995%);stroke-opacity:1;stroke-miterlimit:10;" d="M 0.00121875 -0.00115625 L 234.665281 -0.00115625 " transform="matrix(1,0,0,-1,130.698,470.3465)"/>
<path style="fill:none;stroke-width:3;stroke-linecap:butt;stroke-linejoin:miter;stroke:rgb(17.999268%,67.799377%,89.7995%);stroke-opacity:1;stroke-miterlimit:10;" d="M 0.00121875 -0.000125 L 234.665281 -0.000125 " transform="matrix(1,0,0,-1,130.698,465.328)"/>
<path style="fill:none;stroke-width:3;stroke-linecap:butt;stroke-linejoin:miter;stroke:rgb(9.799194%,30.999756%,49.798584%);stroke-opacity:1;stroke-miterlimit:10;" d="M 0.00121875 -0.00015 L 234.665281 -0.00015 " transform="matrix(1,0,0,-1,130.698,578.4061)"/>
</g>
</svg>
