<?xml version="1.0" encoding="UTF-8"?>
<svg xmlns="http://www.w3.org/2000/svg" xmlns:xlink="http://www.w3.org/1999/xlink" width="85.03937pt" height="722.806299pt" viewBox="0 0 85.03937 722.806299" version="1.1">
<defs>
<clipPath id="clip1">
  <path d="M 0 0 L 85.011719 0 L 85.011719 722.777344 L 0 722.777344 Z M 0 0 "/>
</clipPath>
</defs>
<g id="surface1">
<g clip-path="url(#clip1)" clip-rule="nonzero">
<path style=" stroke:none;fill-rule:evenodd;fill:rgb(100%,100%,100%);fill-opacity:1;" d="M 0 0 L 85.011719 0 L 85.011719 722.777344 L 0 722.777344 Z M 0 0 "/>
</g>
<path style=" stroke:none;fill-rule:evenodd;fill:rgb(12.548828%,56.077576%,77.645874%);fill-opacity:1;" d="M 43.796875 197.746094 L 41.726562 197.746094 L 41.726562 192.359375 L 43.796875 192.359375 Z M 43.796875 197.746094 "/>
<path style=" stroke:none;fill-rule:evenodd;fill:rgb(12.548828%,56.077576%,77.645874%);fill-opacity:1;" d="M 46.316406 195.761719 L 39.03125 195.761719 L 39.03125 194.398438 L 46.316406 194.398438 Z M 46.316406 195.761719 "/>
<path style=" stroke:none;fill-rule:evenodd;fill:rgb(12.548828%,56.077576%,77.645874%);fill-opacity:1;" d="M 48.414062 176.484375 L 46.316406 176.484375 L 46.316406 168.832031 L 48.414062 168.832031 Z M 48.414062 176.484375 "/>
<path style=" stroke:none;fill-rule:evenodd;fill:rgb(12.548828%,56.077576%,77.645874%);fill-opacity:1;" d="M 49.492188 165.769531 L 35.886719 165.769531 L 35.886719 164.351562 L 49.492188 164.351562 Z M 49.492188 165.769531 "/>
<path style=" stroke:none;fill-rule:evenodd;fill:rgb(12.548828%,56.077576%,77.645874%);fill-opacity:1;" d="M 39.230469 176.484375 L 37.191406 176.484375 L 37.191406 170.105469 L 39.230469 170.105469 Z M 39.230469 176.484375 "/>
<path style=" stroke:none;fill-rule:evenodd;fill:rgb(12.548828%,56.077576%,77.645874%);fill-opacity:1;" d="M 49.492188 168.945312 L 39.828125 168.945312 L 39.828125 167.585938 L 49.492188 167.585938 Z M 49.492188 168.945312 "/>
<path style=" stroke:none;fill-rule:evenodd;fill:rgb(12.548828%,56.077576%,77.645874%);fill-opacity:1;" d="M 40.394531 167.132812 L 38.296875 167.132812 L 38.296875 162.992188 L 40.394531 162.992188 Z M 40.394531 167.132812 "/>
<path style=" stroke:none;fill-rule:evenodd;fill:rgb(12.548828%,56.077576%,77.645874%);fill-opacity:1;" d="M 37.757812 172.261719 L 35.433594 172.261719 L 38.890625 167.101562 L 41.242188 167.101562 Z M 37.757812 172.261719 "/>
<path style=" stroke:none;fill-rule:evenodd;fill:rgb(12.548828%,56.077576%,77.645874%);fill-opacity:1;" d="M 42.40625 172.773438 L 40.449219 172.773438 L 40.449219 171.15625 L 42.40625 171.15625 Z M 42.40625 172.773438 "/>
<path style=" stroke:none;fill-rule:evenodd;fill:rgb(12.548828%,56.077576%,77.645874%);fill-opacity:1;" d="M 45.269531 172.886719 L 43.199219 172.886719 L 43.199219 171.070312 L 45.269531 171.070312 Z M 45.269531 172.886719 "/>
<path style=" stroke:none;fill-rule:evenodd;fill:rgb(12.548828%,56.077576%,77.645874%);fill-opacity:1;" d="M 45.269531 171.242188 L 40.449219 171.242188 L 40.449219 169.910156 L 45.269531 169.910156 Z M 45.269531 171.242188 "/>
<path style=" stroke:none;fill-rule:evenodd;fill:rgb(12.548828%,56.077576%,77.645874%);fill-opacity:1;" d="M 45.269531 174.019531 L 40.449219 174.019531 L 40.449219 172.6875 L 45.269531 172.6875 Z M 45.269531 174.019531 "/>
<path style=" stroke:none;fill-rule:evenodd;fill:rgb(12.548828%,56.077576%,77.645874%);fill-opacity:1;" d="M 46.316406 192.585938 L 37.246094 192.585938 L 37.246094 191.226562 L 46.316406 191.226562 Z M 46.316406 192.585938 "/>
<path style=" stroke:none;fill-rule:evenodd;fill:rgb(12.548828%,56.077576%,77.645874%);fill-opacity:1;" d="M 48.246094 197.746094 L 46.203125 197.746094 L 46.203125 191.226562 L 48.246094 191.226562 Z M 48.246094 197.746094 "/>
<path style=" stroke:none;fill-rule:evenodd;fill:rgb(12.548828%,56.077576%,77.645874%);fill-opacity:1;" d="M 48.246094 198.90625 L 39.03125 198.90625 L 39.03125 197.546875 L 48.246094 197.546875 Z M 48.246094 198.90625 "/>
<path style=" stroke:none;fill-rule:evenodd;fill:rgb(12.548828%,56.077576%,77.645874%);fill-opacity:1;" d="M 38.351562 204.660156 L 36 204.660156 L 37.304688 199.8125 L 39.65625 199.8125 Z M 38.351562 204.660156 "/>
<path style=" stroke:none;fill-rule:evenodd;fill:rgb(12.548828%,56.077576%,77.645874%);fill-opacity:1;" d="M 42.320312 204.660156 L 40.28125 204.660156 L 40.28125 199.8125 L 42.320312 199.8125 Z M 42.320312 204.660156 "/>
<path style=" stroke:none;fill-rule:evenodd;fill:rgb(12.548828%,56.077576%,77.645874%);fill-opacity:1;" d="M 49.605469 204.660156 L 41.980469 204.660156 L 41.980469 203.300781 L 49.605469 203.300781 Z M 49.605469 204.660156 "/>
<path style=" stroke:none;fill-rule:evenodd;fill:rgb(12.548828%,56.077576%,77.645874%);fill-opacity:1;" d="M 45.835938 202.421875 L 43.796875 202.421875 L 43.796875 199.8125 L 45.835938 199.8125 Z M 45.835938 202.421875 "/>
<path style=" stroke:none;fill-rule:evenodd;fill:rgb(12.548828%,56.077576%,77.645874%);fill-opacity:1;" d="M 49.265625 202.421875 L 47.226562 202.421875 L 47.226562 199.8125 L 49.265625 199.8125 Z M 49.265625 202.421875 "/>
<path style=" stroke:none;fill-rule:evenodd;fill:rgb(12.548828%,56.077576%,77.645874%);fill-opacity:1;" d="M 46.914062 167.101562 L 44.84375 167.101562 L 44.84375 163.019531 L 46.914062 163.019531 Z M 46.914062 167.101562 "/>
<path style=" stroke:none;fill-rule:evenodd;fill:rgb(12.548828%,56.077576%,77.645874%);fill-opacity:1;" d="M 39.230469 198.90625 L 37.246094 198.90625 L 37.246094 192.445312 L 39.230469 192.445312 Z M 39.230469 198.90625 "/>
</g>
</svg>
